<svg id="visual" viewBox="0 0 960 540" width="960" height="540" xmlns="http://www.w3.org/2000/svg" xmlns:xlink="http://www.w3.org/1999/xlink" version="1.1"><rect x="0" y="0" width="960" height="540" fill="#002233"></rect><path d="M0 401L22.8 412.7C45.7 424.3 91.3 447.7 137 446.2C182.7 444.7 228.3 418.3 274 405.2C319.7 392 365.3 392 411.2 406.7C457 421.3 503 450.7 548.8 455.3C594.7 460 640.3 440 686 435C731.7 430 777.3 440 823 447.2C868.7 454.3 914.3 458.7 937.2 460.8L960 463L960 541L937.2 541C914.3 541 868.7 541 823 541C777.3 541 731.7 541 686 541C640.3 541 594.7 541 548.8 541C503 541 457 541 411.2 541C365.3 541 319.7 541 274 541C228.3 541 182.7 541 137 541C91.3 541 45.7 541 22.8 541L0 541Z" fill="#00e0ff" stroke-linecap="round" stroke-linejoin="miter"></path></svg>