<svg id="visual" viewBox="0 0 960 600" width="960" height="600" xmlns="http://www.w3.org/2000/svg" xmlns:xlink="http://www.w3.org/1999/xlink" version="1.1"><rect x="0" y="0" width="960" height="600" fill="#002233"></rect><path d="M0 369L22.8 388.5C45.7 408 91.3 447 137 444.5C182.7 442 228.3 398 274 376C319.7 354 365.3 354 411.2 378.3C457 402.7 503 451.3 548.8 459C594.7 466.7 640.3 433.3 686 425.2C731.7 417 777.3 434 823 446.2C868.7 458.3 914.3 465.7 937.2 469.3L960 473L960 601L937.2 601C914.3 601 868.7 601 823 601C777.3 601 731.7 601 686 601C640.3 601 594.7 601 548.8 601C503 601 457 601 411.2 601C365.3 601 319.7 601 274 601C228.3 601 182.7 601 137 601C91.3 601 45.7 601 22.8 601L0 601Z" fill="#00e0ff" stroke-linecap="round" stroke-linejoin="miter"></path></svg>