<svg id="visual" viewBox="0 0 960 540" width="960" height="540" xmlns="http://www.w3.org/2000/svg" xmlns:xlink="http://www.w3.org/1999/xlink" version="1.1"><rect x="0" y="0" width="960" height="540" fill="#002233"></rect><path d="M0 446L32 454.7C64 463.3 128 480.7 192 476.7C256 472.7 320 447.3 384 441.2C448 435 512 448 576 458.2C640 468.3 704 475.7 768 472.5C832 469.3 896 455.7 928 448.8L960 442L960 541L928 541C896 541 832 541 768 541C704 541 640 541 576 541C512 541 448 541 384 541C320 541 256 541 192 541C128 541 64 541 32 541L0 541Z" fill="#00e0ff" stroke-linecap="round" stroke-linejoin="miter"></path></svg>