<svg id="visual" viewBox="0 0 900 600" width="900" height="600" xmlns="http://www.w3.org/2000/svg" xmlns:xlink="http://www.w3.org/1999/xlink" version="1.1"><rect x="0" y="0" width="900" height="600" fill="#002233"></rect><path d="M0 445L21.5 458.2C43 471.3 86 497.7 128.8 496.2C171.7 494.7 214.3 465.3 257.2 450.7C300 436 343 436 385.8 452.2C428.7 468.3 471.3 500.7 514.2 505.7C557 510.7 600 488.3 642.8 483C685.7 477.7 728.3 489.3 771.2 497.5C814 505.7 857 510.3 878.5 512.7L900 515L900 601L878.5 601C857 601 814 601 771.2 601C728.3 601 685.7 601 642.8 601C600 601 557 601 514.2 601C471.3 601 428.7 601 385.8 601C343 601 300 601 257.2 601C214.3 601 171.7 601 128.8 601C86 601 43 601 21.5 601L0 601Z" fill="#00e0ff" stroke-linecap="round" stroke-linejoin="miter"></path></svg>